<svg xmlns="http://www.w3.org/2000/svg" xmlns:xlink="http://www.w3.org/1999/xlink" fill="none" version="1.1" width="13.333333969116211" height="13.333333969116211" viewBox="0 0 13.333333969116211 13.333333969116211"><g><path d="M0.878744,5.12134Q1.75732,6,3,6L4.66667,6Q5.21891,6,5.60954,5.60946Q6,5.21895,6,4.66667L6,3Q6,1.75736,5.12126,0.878662Q4.24268,0,3,0Q1.75732,0,0.878744,0.878662Q0,1.75736,0,3Q0,4.24264,0.878744,5.12134ZM7.33333,3L7.33333,4.66667Q7.33333,5.21895,7.7238,5.60946Q8.11442,6,8.66667,6L10.3333,6Q11.576,6,12.4546,5.12134Q13.3333,4.24264,13.3333,3Q13.3333,1.75736,12.4546,0.878662Q11.576,0,10.3333,0Q9.09066,0,8.21208,0.878662Q7.33333,1.75736,7.33333,3ZM4.66667,4.66667L3,4.66667Q2.30957,4.66667,1.82145,4.17851Q1.33333,3.69035,1.33333,3Q1.33333,2.30965,1.82145,1.82149Q2.30957,1.33333,3,1.33333Q3.69043,1.33333,4.17855,1.82149Q4.66667,2.30965,4.66667,3L4.66667,4.66667ZM10.3333,4.66667L8.66667,4.66667L8.66667,3Q8.66667,2.30965,9.15479,1.82149Q9.6429,1.33333,10.3333,1.33333Q11.0238,1.33333,11.5119,1.82149Q12,2.30965,12,3Q12,3.69035,11.5119,4.17851Q11.0238,4.66667,10.3333,4.66667ZM0.878744,12.4547Q1.75732,13.3333,3,13.3333Q4.24268,13.3333,5.12126,12.4547Q6,11.576,6,10.3333L6,8.66667Q6,8.11438,5.60954,7.72388Q5.21891,7.33333,4.66667,7.33333L3,7.33333Q1.75732,7.33333,0.878744,8.212Q0,9.0907,0,10.3333Q0,11.576,0.878744,12.4547ZM7.33333,8.66667L7.33333,10.3333Q7.33333,11.576,8.21208,12.4547Q9.09066,13.3333,10.3333,13.3333Q11.576,13.3333,12.4546,12.4547Q13.3333,11.576,13.3333,10.3333Q13.3333,9.0907,12.4546,8.212Q11.576,7.33333,10.3333,7.33333L8.66667,7.33333Q8.11442,7.33333,7.7238,7.72388Q7.33333,8.11438,7.33333,8.66667ZM4.17855,11.5118Q3.69043,12,3,12Q2.30957,12,1.82145,11.5118Q1.33333,11.0237,1.33333,10.3333Q1.33333,9.64299,1.82145,9.15483Q2.30957,8.66667,3,8.66667L4.66667,8.66667L4.66667,10.3333Q4.66667,11.0237,4.17855,11.5118ZM9.15479,11.5118Q8.66667,11.0237,8.66667,10.3333L8.66667,8.66667L10.3333,8.66667Q11.0238,8.66667,11.5119,9.15483Q12,9.64299,12,10.3333Q12,11.0237,11.5119,11.5118Q11.0238,12,10.3333,12Q9.6429,12,9.15479,11.5118Z" fill-rule="evenodd" fill="#4B4B4B" fill-opacity="1"/></g></svg>