<svg xmlns="http://www.w3.org/2000/svg" xmlns:xlink="http://www.w3.org/1999/xlink" fill="none" version="1.1" width="10" height="10" viewBox="0 0 10 10"><g><path d="M6.94636,0.393122Q6.01696,0,5,0Q3.98304,0,3.05364,0.393122Q2.15632,0.772677,1.46451,1.46446Q0.772705,2.15626,0.393066,3.05364Q0,3.98304,0,5Q0,6.01696,0.393066,6.94636Q0.772705,7.84374,1.46451,8.53555Q2.15632,9.22732,3.05364,9.60688Q3.98304,10,5,10Q6.01696,10,6.94636,9.60688Q7.84368,9.22732,8.53549,8.53555Q9.22729,7.84374,9.60693,6.94636Q10,6.01696,10,5Q10,3.98304,9.60693,3.05364Q9.22729,2.15626,8.53549,1.46446Q7.84368,0.772677,6.94636,0.393122ZM3.40776,1.23039Q4.16737,0.909091,5,0.909091Q5.83263,0.909091,6.59224,1.23039Q7.32633,1.54086,7.89273,2.10729Q8.45914,2.6737,8.76964,3.40776Q9.09091,4.1674,9.09091,5Q9.09091,5.8326,8.76964,6.59224Q8.45914,7.32627,7.89273,7.89271Q7.32633,8.45914,6.59224,8.76962Q5.83263,9.09091,5,9.09091Q4.16737,9.09091,3.40776,8.76962Q2.67367,8.45914,2.10727,7.89271Q1.54086,7.3263,1.23036,6.59224Q0.909091,5.8326,0.909091,5Q0.909091,4.1674,1.23036,3.40776Q1.54086,2.6737,2.10727,2.10729Q2.67367,1.54086,3.40776,1.23039ZM7.36017,4.10706C7.4454,4.02183,7.49334,3.90619,7.49334,3.78565C7.49334,3.5346,7.28982,3.3311,7.0388,3.3311C6.91828,3.3311,6.80265,3.37899,6.71742,3.46424L6.7172,3.46447L4.46744,5.71414L3.50342,4.75012L3.5032,4.74989C3.41797,4.66464,3.30234,4.61676,3.18182,4.61676C2.9308,4.61676,2.72727,4.82025,2.72727,5.0713C2.72727,5.19184,2.77521,5.30748,2.86044,5.39271L2.86066,5.39296L4.14606,6.67836C4.32351,6.85589,4.61137,6.85589,4.78882,6.67836L7.35995,4.10731L7.36017,4.10706Z" fill-rule="evenodd" fill="currentColor" fill-opacity="1"/></g></svg>