<svg xmlns="http://www.w3.org/2000/svg" xmlns:xlink="http://www.w3.org/1999/xlink" fill="none" version="1.1" width="20" height="20" viewBox="0 0 20 20"><g><g style="opacity:0.20000000298023224;"><path d="M17.5000740234375,0.83349609375L7.5000440234375,0.83349609375C6.5796300234375,0.83349609375,5.8333740234375,1.5796760937499998,5.8333740234375,2.50016609375L5.8333740234375,6.66809609375C5.8333740234375,7.12835609375,6.2065020234375,7.50143609375,6.6667070234375,7.50143609375L12.5022740234375,7.50143609375L12.5022740234375,13.33349609375C12.5022740234375,13.79369609375,12.8754040234375,14.16679609375,13.3356140234375,14.16679609375L17.5000740234375,14.16679609375C18.4204740234375,14.16679609375,19.1666740234375,13.42069609375,19.1666740234375,12.50019609375L19.1666740234375,2.50016609375C19.1666740234375,1.5796760937499998,18.4204740234375,0.83349609375,17.5000740234375,0.83349609375Z" fill="#2C54D1" fill-opacity="1"/></g><g><path d="M6.6207240234375,7.50016609375L2.5000440234375,7.50016609375L2.5000440234375,17.50019609375L12.5000740234375,17.50019609375L12.5000740234375,7.50143609375L6.6667040234375,7.50143609375C6.6514440234375,7.50143609375,6.6359840234375,7.50100609375,6.6207240234375,7.50016609375ZM14.1666740234375,14.16679609375L14.1666740234375,17.50019609375Q14.1666740234375,18.19049609375,13.6786740234375,18.67869609375Q13.1903740234375,19.16679609375,12.5000740234375,19.16679609375L2.5000440234375,19.16679609375Q1.8097330234375,19.16679609375,1.3214520234375,18.67869609375Q0.8333740234375,18.19049609375,0.8333740234375,17.50019609375L0.8333740234375,7.50016609375Q0.8333740234375,6.80980609375,1.3214520234375,6.32164609375Q1.8097330234375,5.83349609375,2.5000440234375,5.83349609375L5.8333740234375,5.83349609375L5.8333740234375,2.50016609375Q5.8333740234375,1.80980409375,6.3214540234375,1.32165009375Q6.8097340234375,0.83349609375,7.5000440234375,0.83349609375L17.5000740234375,0.83349609375Q18.1903740234375,0.83349609375,18.6786740234375,1.32165009375Q19.1666740234375,1.80980409375,19.1666740234375,2.50016609375L19.1666740234375,12.50019609375Q19.1666740234375,13.19049609375,18.6786740234375,13.67869609375Q18.1903740234375,14.16679609375,17.5000740234375,14.16679609375L14.1666740234375,14.16679609375ZM14.1689740234375,12.50019609375L17.5000740234375,12.50019609375L17.5000740234375,2.50016609375L7.5000440234375,2.50016609375L7.5000440234375,5.83349609375L12.5000740234375,5.83349609375Q12.9498740234375,5.83349609375,13.3136740234375,6.04065609375Q13.5097740234375,6.15179609375,13.6808740234375,6.32292609375Q14.1689740234375,6.81107609375,14.1689740234375,7.50143609375L14.1689740234375,12.50019609375Z" fill-rule="evenodd" fill="#2C54D1" fill-opacity="1"/></g></g></svg>